<svg width="18" height="17" viewBox="0 0 18 17" fill="none" xmlns="http://www.w3.org/2000/svg">
    <path d="M13.5 6C13.5 7.38071 12.3807 8.5 11 8.5C9.61929 8.5 8.5 7.38071 8.5 6C8.5 4.61929 9.61929 3.5 11 3.5C12.3807 3.5 13.5 4.61929 13.5 6Z" stroke="#F2F2F2"/>
    <path d="M8.06347 11.2562C7.59477 12.0954 7.13856 12.6477 6.65629 12.992C6.18545 13.3281 5.65882 13.4882 5 13.4882C4.64772 13.4882 4.30989 13.4914 3.98788 13.4945C3.0104 13.5038 2.17877 13.5117 1.53167 13.424C1.10388 13.3659 0.834693 13.2738 0.681198 13.1655C0.562607 13.0818 0.5 12.9835 0.5 12.7906C0.5 10.4409 2.49434 8.5 5 8.5C6.28956 8.5 7.27236 8.90045 7.80797 9.43308C8.07228 9.69592 8.22313 9.98444 8.26953 10.2762C8.3155 10.5654 8.26504 10.8953 8.06347 11.2562Z" stroke="#F2F2F2"/>
    <path d="M7.5 4C7.5 5.38071 6.38071 6.5 5 6.5C3.61929 6.5 2.5 5.38071 2.5 4C2.5 2.61929 3.61929 1.5 5 1.5C6.38071 1.5 7.5 2.61929 7.5 4Z" stroke="#F2F2F2"/>
    <path d="M15.5 14.7905C15.5 14.9835 15.4374 15.0818 15.3188 15.1655C15.1653 15.2738 14.8961 15.3659 14.4683 15.424C13.8212 15.5117 12.9896 15.5038 12.0121 15.4945C11.6901 15.4914 11.3523 15.4882 11 15.4882C10.6477 15.4882 10.3099 15.4914 9.98787 15.4945C9.0104 15.5038 8.17877 15.5117 7.53167 15.424C7.10388 15.3659 6.83469 15.2738 6.6812 15.1655C6.56261 15.0818 6.5 14.9835 6.5 14.7905C6.5 12.4409 8.49434 10.5 11 10.5C13.5057 10.5 15.5 12.4409 15.5 14.7905Z" stroke="#F2F2F2"/>
</svg>
